{"asset":{"version":"2.0","generator":"babylon.js glTF exporter for 3ds max 2019 v1.3.33"},"scene":0,"scenes":[{"nodes":[0,1,2,3,4,5,6,7,8],"extensions":{}}],"nodes":[{"mesh":0,"translation":[299.668579,0.0,522.9829],"rotation":[0.0,0.0,0.0,1.0],"scale":[1.0,1.0,1.0],"name":"对象004"},{"mesh":1,"translation":[-300.0,6.10351563E-05,-527.9965],"rotation":[0.0,0.0,0.0,1.0],"scale":[1.0,1.0,1.0],"name":"对象005"},{"mesh":2,"translation":[299.668579,0.0,522.9829],"rotation":[0.0,0.0,0.0,1.0],"scale":[1.0,1.0,1.0],"name":"对象006"},{"mesh":3,"translation":[-300.0,6.10351563E-05,-527.9965],"rotation":[0.0,0.0,0.0,1.0],"scale":[1.0,1.0,1.0],"name":"对象007"},{"mesh":4,"translation":[300.0,0.0,-527.9931],"rotation":[0.0,0.0,0.0,1.0],"scale":[1.0,1.0,1.0],"name":"对象008"},{"mesh":5,"translation":[300.0,0.0,-527.9931],"rotation":[0.0,0.0,0.0,1.0],"scale":[1.0,1.0,1.0],"name":"对象009"},{"mesh":6,"translation":[7.62939453E-05,61.14258,529.5331],"rotation":[0.0,0.0,0.0,1.0],"scale":[1.0,1.0,1.0],"name":"Box2118"},{"mesh":7,"translation":[1.52587891E-05,0.0,549.9998],"rotation":[0.0,0.0,0.0,1.0],"scale":[1.0,1.0,1.0],"name":"Box2119"},{"translation":[0.0,0.0,0.0],"rotation":[0.0,0.0,0.0,1.0],"scale":[1.0,1.0,1.0],"name":"Default light"}],"meshes":[{"primitives":[{"attributes":{"POSITION":1,"NORMAL":2,"TEXCOORD_0":3},"indices":0,"mode":4,"material":0}],"name":"对象004"},{"primitives":[{"attributes":{"POSITION":5,"NORMAL":6,"TEXCOORD_0":7},"indices":4,"mode":4,"material":0}],"name":"对象005"},{"primitives":[{"attributes":{"POSITION":9,"NORMAL":10,"TEXCOORD_0":11},"indices":8,"mode":4,"material":1}],"name":"对象006"},{"primitives":[{"attributes":{"POSITION":13,"NORMAL":14,"TEXCOORD_0":15},"indices":12,"mode":4,"material":1}],"name":"对象007"},{"primitives":[{"attributes":{"POSITION":17,"NORMAL":18,"TEXCOORD_0":19},"indices":16,"mode":4,"material":1}],"name":"对象008"},{"primitives":[{"attributes":{"POSITION":21,"NORMAL":22,"TEXCOORD_0":23},"indices":20,"mode":4,"material":0}],"name":"对象009"},{"primitives":[{"attributes":{"POSITION":25,"NORMAL":26,"TEXCOORD_0":27},"indices":24,"mode":4,"material":2}],"name":"Box2118"},{"primitives":[{"attributes":{"POSITION":29,"NORMAL":30,"TEXCOORD_0":31},"indices":28,"mode":4,"material":0}],"name":"Box2119"}],"accessors":[{"bufferView":0,"componentType":5123,"count":456,"type":"SCALAR","name":"accessorIndices"},{"bufferView":1,"componentType":5126,"count":456,"max":[0.000122070313,1999.99988,27.0175171],"min":[-599.3371,-3.912833E-06,-0.157348633],"type":"VEC3","name":"accessorPositions"},{"bufferView":1,"byteOffset":5472,"componentType":5126,"count":456,"type":"VEC3","name":"accessorNormals"},{"bufferView":2,"componentType":5126,"count":456,"type":"VEC2","name":"accessorUVs"},{"bufferView":0,"byteOffset":912,"componentType":5123,"count":156,"type":"SCALAR","name":"accessorIndices"},{"bufferView":1,"byteOffset":10944,"componentType":5126,"count":156,"max":[299.999969,2000.00024,3.00042725],"min":[0.0,0.000195312547,-22.0037842],"type":"VEC3","name":"accessorPositions"},{"bufferView":1,"byteOffset":12816,"componentType":5126,"count":156,"type":"VEC3","name":"accessorNormals"},{"bufferView":2,"byteOffset":3648,"componentType":5126,"count":156,"type":"VEC2","name":"accessorUVs"},{"bufferView":0,"byteOffset":1224,"componentType":5123,"count":42,"type":"SCALAR","name":"accessorIndices"},{"bufferView":1,"byteOffset":14688,"componentType":5126,"count":42,"max":[-49.37799,1939.4967,27.0175171],"min":[-549.959167,48.38144,27.0167847],"type":"VEC3","name":"accessorPositions"},{"bufferView":1,"byteOffset":15192,"componentType":5126,"count":42,"type":"VEC3","name":"accessorNormals"},{"bufferView":2,"byteOffset":4896,"componentType":5126,"count":42,"type":"VEC2","name":"accessorUVs"},{"bufferView":0,"byteOffset":1308,"componentType":5123,"count":36,"type":"SCALAR","name":"accessorIndices"},{"bufferView":1,"byteOffset":15696,"componentType":5126,"count":36,"max":[285.601074,1949.75317,-22.0030518],"min":[45.05539,50.24717,-22.0037842],"type":"VEC3","name":"accessorPositions"},{"bufferView":1,"byteOffset":16128,"componentType":5126,"count":36,"type":"VEC3","name":"accessorNormals"},{"bufferView":2,"byteOffset":5232,"componentType":5126,"count":36,"type":"VEC2","name":"accessorUVs"},{"bufferView":0,"byteOffset":1380,"componentType":5123,"count":6,"type":"SCALAR","name":"accessorIndices"},{"bufferView":1,"byteOffset":16560,"componentType":5126,"count":6,"max":[-45.05539,1949.753,-22.00647],"min":[-285.601074,50.24717,-22.0072021],"type":"VEC3","name":"accessorPositions"},{"bufferView":1,"byteOffset":16632,"componentType":5126,"count":6,"type":"VEC3","name":"accessorNormals"},{"bufferView":2,"byteOffset":5520,"componentType":5126,"count":6,"type":"VEC2","name":"accessorUVs"},{"bufferView":0,"byteOffset":1392,"componentType":5123,"count":138,"type":"SCALAR","name":"accessorIndices"},{"bufferView":1,"byteOffset":16704,"componentType":5126,"count":138,"max":[0.0,2000.00012,2.99700928],"min":[-299.999969,0.0001953131,-22.0072021],"type":"VEC3","name":"accessorPositions"},{"bufferView":1,"byteOffset":18360,"componentType":5126,"count":138,"type":"VEC3","name":"accessorNormals"},{"bufferView":2,"byteOffset":5568,"componentType":5126,"count":138,"type":"VEC2","name":"accessorUVs"},{"bufferView":0,"byteOffset":1668,"componentType":5123,"count":6828,"type":"SCALAR","name":"accessorIndices"},{"bufferView":1,"byteOffset":20016,"componentType":5126,"count":6828,"max":[246.657608,1866.90039,-43.5317078],"min":[-243.215485,0.000102996826,-760.6449],"type":"VEC3","name":"accessorPositions"},{"bufferView":1,"byteOffset":101952,"componentType":5126,"count":6828,"type":"VEC3","name":"accessorNormals"},{"bufferView":2,"byteOffset":6672,"componentType":5126,"count":6828,"type":"VEC2","name":"accessorUVs"},{"bufferView":0,"byteOffset":15324,"componentType":5123,"count":954,"type":"SCALAR","name":"accessorIndices"},{"bufferView":1,"byteOffset":183888,"componentType":5126,"count":954,"max":[300.0,2000.00024,-27.0166626],"min":[-299.999939,4.42725832E-06,-1077.9967],"type":"VEC3","name":"accessorPositions"},{"bufferView":1,"byteOffset":195336,"componentType":5126,"count":954,"type":"VEC3","name":"accessorNormals"},{"bufferView":2,"byteOffset":61296,"componentType":5126,"count":954,"type":"VEC2","name":"accessorUVs"},{"bufferView":3,"componentType":5126,"count":32,"max":[3.33333325],"min":[0.0],"type":"SCALAR","name":"accessorAnimationInput"},{"bufferView":4,"componentType":5126,"count":32,"type":"VEC4","name":"accessorAnimationRotations"},{"bufferView":3,"byteOffset":128,"componentType":5126,"count":32,"max":[3.33333325],"min":[0.0],"type":"SCALAR","name":"accessorAnimationInput"},{"bufferView":4,"byteOffset":512,"componentType":5126,"count":32,"type":"VEC4","name":"accessorAnimationRotations"},{"bufferView":3,"byteOffset":256,"componentType":5126,"count":32,"max":[3.33333325],"min":[0.0],"type":"SCALAR","name":"accessorAnimationInput"},{"bufferView":4,"byteOffset":1024,"componentType":5126,"count":32,"type":"VEC4","name":"accessorAnimationRotations"},{"bufferView":3,"byteOffset":384,"componentType":5126,"count":32,"max":[3.33333325],"min":[0.0],"type":"SCALAR","name":"accessorAnimationInput"},{"bufferView":4,"byteOffset":1536,"componentType":5126,"count":32,"type":"VEC4","name":"accessorAnimationRotations"},{"bufferView":3,"byteOffset":512,"componentType":5126,"count":32,"max":[3.33333325],"min":[0.0],"type":"SCALAR","name":"accessorAnimationInput"},{"bufferView":4,"byteOffset":2048,"componentType":5126,"count":32,"type":"VEC4","name":"accessorAnimationRotations"},{"bufferView":3,"byteOffset":640,"componentType":5126,"count":32,"max":[3.33333325],"min":[0.0],"type":"SCALAR","name":"accessorAnimationInput"},{"bufferView":4,"byteOffset":2560,"componentType":5126,"count":32,"type":"VEC4","name":"accessorAnimationRotations"}],"bufferViews":[{"buffer":0,"byteLength":17232,"name":"bufferViewScalar"},{"buffer":0,"byteOffset":17232,"byteLength":206784,"byteStride":12,"name":"bufferViewFloatVec3"},{"buffer":0,"byteOffset":224016,"byteLength":68928,"byteStride":8,"name":"bufferViewFloatVec2"},{"buffer":0,"byteOffset":292944,"byteLength":768,"name":"bufferViewAnimationFloatScalar"},{"buffer":0,"byteOffset":293712,"byteLength":3072,"name":"bufferViewAnimationFloatVec4"}],"buffers":[{"uri":"1.bin","byteLength":296784}],"materials":[{"pbrMetallicRoughness":{"baseColorFactor":[1.0,1.0,1.0,1.0],"baseColorTexture":{"index":0,"texCoord":0},"metallicFactor":0.0,"roughnessFactor":0.9},"emissiveFactor":[0.0,0.0,0.0],"alphaMode":"OPAQUE","name":"Material #1"},{"pbrMetallicRoughness":{"baseColorFactor":[1.0,1.0,1.0,1.0],"baseColorTexture":{"index":1,"texCoord":0},"metallicFactor":0.0,"roughnessFactor":0.9},"emissiveFactor":[0.0,0.0,0.0],"alphaMode":"BLEND","name":"Material #2"},{"pbrMetallicRoughness":{"baseColorFactor":[1.0,1.0,1.0,1.0],"baseColorTexture":{"index":2,"texCoord":0},"metallicFactor":0.0,"roughnessFactor":0.9},"emissiveFactor":[0.0,0.0,0.0],"alphaMode":"BLEND","name":"05 - Default"}],"textures":[{"sampler":0,"source":0,"name":"1.png"},{"sampler":0,"source":1,"name":"huiwang.png"},{"sampler":0,"source":2,"name":"2.png"}],"images":[{"uri":"1.png"},{"uri":"huiwang.png"},{"uri":"2.png"}],"samplers":[{"magFilter":9729,"minFilter":9987,"wrapS":10497,"wrapT":10497}],"animations":[{"channels":[{"sampler":0,"target":{"node":0,"path":"rotation"}},{"sampler":1,"target":{"node":1,"path":"rotation"}},{"sampler":2,"target":{"node":2,"path":"rotation"}},{"sampler":3,"target":{"node":3,"path":"rotation"}},{"sampler":4,"target":{"node":4,"path":"rotation"}},{"sampler":5,"target":{"node":5,"path":"rotation"}}],"samplers":[{"input":32,"interpolation":"LINEAR","output":33},{"input":34,"interpolation":"LINEAR","output":35},{"input":36,"interpolation":"LINEAR","output":37},{"input":38,"interpolation":"LINEAR","output":39},{"input":40,"interpolation":"LINEAR","output":41},{"input":42,"interpolation":"LINEAR","output":43}],"name":"All Animations"}]}