{"asset":{"version":"2.0","generator":"babylon.js glTF exporter for 3ds max 2019 v1.3.33"},"scene":0,"scenes":[{"nodes":[0,1,2,3,4,5,6,7,8],"extensions":{}}],"nodes":[{"mesh":0,"translation":[-2.508168E-06,-1.52587745E-07,0.459079742],"rotation":[0.0,0.0,0.0,1.0],"scale":[1.0,1.0,1.0],"name":"Box2128"},{"mesh":1,"translation":[0.297876358,-7.629387E-08,0.431758881],"rotation":[0.0,0.0,0.0,1.0],"scale":[1.0,1.0,1.0],"name":"对象049"},{"mesh":2,"translation":[-0.2970028,-7.629387E-08,-0.463596344],"rotation":[0.0,0.0,0.0,1.0],"scale":[1.0,1.0,1.0],"name":"对象050"},{"mesh":3,"translation":[0.29699707,-7.629387E-08,-0.463596344],"rotation":[0.0,0.0,0.0,1.0],"scale":[1.0,1.0,1.0],"name":"对象051"},{"mesh":4,"translation":[0.297876358,-7.629387E-08,0.431758881],"rotation":[0.0,0.0,0.0,1.0],"scale":[1.0,1.0,1.0],"name":"对象052"},{"mesh":5,"translation":[-0.2970028,-7.629387E-08,-0.463596344],"rotation":[0.0,0.0,0.0,1.0],"scale":[1.0,1.0,1.0],"name":"对象053"},{"mesh":6,"translation":[0.29699707,-7.629387E-08,-0.463596344],"rotation":[0.0,0.0,0.0,1.0],"scale":[1.0,1.0,1.0],"name":"对象054"},{"mesh":7,"translation":[-0.00120257586,0.0950670242,0.431541443],"rotation":[0.0,0.0,0.0,1.0],"scale":[1.0,1.0,1.0],"name":"Box2129"},{"translation":[0.0,0.0,0.0],"rotation":[0.0,0.0,0.0,1.0],"scale":[1.0,1.0,1.0],"name":"Default light"}],"meshes":[{"primitives":[{"attributes":{"POSITION":1,"TANGENT":2,"NORMAL":3,"TEXCOORD_0":4},"indices":0,"mode":4,"material":0}],"name":"Box2128"},{"primitives":[{"attributes":{"POSITION":6,"TANGENT":7,"NORMAL":8,"TEXCOORD_0":9},"indices":5,"mode":4,"material":0}],"name":"对象049"},{"primitives":[{"attributes":{"POSITION":11,"TANGENT":12,"NORMAL":13,"TEXCOORD_0":14},"indices":10,"mode":4,"material":0}],"name":"对象050"},{"primitives":[{"attributes":{"POSITION":16,"TANGENT":17,"NORMAL":18,"TEXCOORD_0":19},"indices":15,"mode":4,"material":0}],"name":"对象051"},{"primitives":[{"attributes":{"POSITION":21,"TANGENT":22,"NORMAL":23,"TEXCOORD_0":24},"indices":20,"mode":4,"material":1}],"name":"对象052"},{"primitives":[{"attributes":{"POSITION":26,"TANGENT":27,"NORMAL":28,"TEXCOORD_0":29},"indices":25,"mode":4,"material":1}],"name":"对象053"},{"primitives":[{"attributes":{"POSITION":31,"TANGENT":32,"NORMAL":33,"TEXCOORD_0":34},"indices":30,"mode":4,"material":1}],"name":"对象054"},{"primitives":[{"attributes":{"POSITION":36,"TANGENT":37,"NORMAL":38,"TEXCOORD_0":39},"indices":35,"mode":4,"material":2}],"name":"Box2129"}],"accessors":[{"bufferView":0,"componentType":5123,"count":984,"type":"SCALAR","name":"accessorIndices"},{"bufferView":1,"componentType":5126,"count":984,"max":[0.300000042,2.04500055,4.172325E-07],"min":[-0.299999982,6.200196E-10,-0.950000644],"type":"VEC3","name":"accessorPositions"},{"bufferView":2,"componentType":5126,"count":984,"type":"VEC4","name":"accessorTangents"},{"bufferView":1,"byteOffset":11808,"componentType":5126,"count":984,"type":"VEC3","name":"accessorNormals"},{"bufferView":3,"componentType":5126,"count":984,"type":"VEC2","name":"accessorUVs"},{"bufferView":0,"byteOffset":1968,"componentType":5123,"count":216,"type":"SCALAR","name":"accessorIndices"},{"bufferView":1,"byteOffset":23616,"componentType":5126,"count":216,"max":[0.00212132931,1.99448848,0.0273216963],"min":[-0.5978787,0.05051151,-8.940697E-08],"type":"VEC3","name":"accessorPositions"},{"bufferView":2,"byteOffset":15744,"componentType":5126,"count":216,"type":"VEC4","name":"accessorTangents"},{"bufferView":1,"byteOffset":26208,"componentType":5126,"count":216,"type":"VEC3","name":"accessorNormals"},{"bufferView":3,"byteOffset":7872,"componentType":5126,"count":216,"type":"VEC2","name":"accessorUVs"},{"bufferView":0,"byteOffset":2400,"componentType":5123,"count":240,"type":"SCALAR","name":"accessorIndices"},{"bufferView":1,"byteOffset":28800,"componentType":5126,"count":240,"max":[0.297,1.9944886,8.64267349E-07],"min":[-0.00299999118,0.0505118147,-0.02732107],"type":"VEC3","name":"accessorPositions"},{"bufferView":2,"byteOffset":19200,"componentType":5126,"count":240,"type":"VEC4","name":"accessorTangents"},{"bufferView":1,"byteOffset":31680,"componentType":5126,"count":240,"type":"VEC3","name":"accessorNormals"},{"bufferView":3,"byteOffset":9600,"componentType":5126,"count":240,"type":"VEC2","name":"accessorUVs"},{"bufferView":0,"byteOffset":2880,"componentType":5123,"count":204,"type":"SCALAR","name":"accessorIndices"},{"bufferView":1,"byteOffset":34560,"componentType":5126,"count":204,"max":[0.00299999118,1.9944886,8.64267349E-07],"min":[-0.297,0.0505118147,-0.02732107],"type":"VEC3","name":"accessorPositions"},{"bufferView":2,"byteOffset":23040,"componentType":5126,"count":204,"type":"VEC4","name":"accessorTangents"},{"bufferView":1,"byteOffset":37008,"componentType":5126,"count":204,"type":"VEC3","name":"accessorNormals"},{"bufferView":3,"byteOffset":11520,"componentType":5126,"count":204,"type":"VEC2","name":"accessorUVs"},{"bufferView":0,"byteOffset":3288,"componentType":5123,"count":24,"type":"SCALAR","name":"accessorIndices"},{"bufferView":1,"byteOffset":39456,"componentType":5126,"count":24,"max":[-0.06188248,1.95944726,0.0273216963],"min":[-0.533874869,0.08555272,0.0273203552],"type":"VEC3","name":"accessorPositions"},{"bufferView":2,"byteOffset":26304,"componentType":5126,"count":24,"type":"VEC4","name":"accessorTangents"},{"bufferView":1,"byteOffset":39744,"componentType":5126,"count":24,"type":"VEC3","name":"accessorNormals"},{"bufferView":3,"byteOffset":13152,"componentType":5126,"count":24,"type":"VEC2","name":"accessorUVs"},{"bufferView":0,"byteOffset":3336,"componentType":5123,"count":36,"type":"SCALAR","name":"accessorIndices"},{"bufferView":1,"byteOffset":40032,"componentType":5126,"count":36,"max":[0.27699998,1.95944762,-0.02731964],"min":[0.0534600019,0.0855530351,-0.02732107],"type":"VEC3","name":"accessorPositions"},{"bufferView":2,"byteOffset":26688,"componentType":5126,"count":36,"type":"VEC4","name":"accessorTangents"},{"bufferView":1,"byteOffset":40464,"componentType":5126,"count":36,"type":"VEC3","name":"accessorNormals"},{"bufferView":3,"byteOffset":13344,"componentType":5126,"count":36,"type":"VEC2","name":"accessorUVs"},{"bufferView":0,"byteOffset":3408,"componentType":5123,"count":6,"type":"SCALAR","name":"accessorIndices"},{"bufferView":1,"byteOffset":40896,"componentType":5126,"count":6,"max":[-0.0534600019,1.95944762,-0.02731964],"min":[-0.27699998,0.0855530351,-0.02732107],"type":"VEC3","name":"accessorPositions"},{"bufferView":2,"byteOffset":27264,"componentType":5126,"count":6,"type":"VEC4","name":"accessorTangents"},{"bufferView":1,"byteOffset":40968,"componentType":5126,"count":6,"type":"VEC3","name":"accessorNormals"},{"bufferView":3,"byteOffset":13632,"componentType":5126,"count":6,"type":"VEC2","name":"accessorUVs"},{"bufferView":0,"byteOffset":3420,"componentType":5123,"count":6828,"type":"SCALAR","name":"accessorIndices"},{"bufferView":1,"byteOffset":41040,"componentType":5126,"count":6828,"max":[0.25130263,1.86690056,-0.04009673],"min":[-0.248903245,0.0,-0.8745806],"type":"VEC3","name":"accessorPositions"},{"bufferView":2,"byteOffset":27360,"componentType":5126,"count":6828,"type":"VEC4","name":"accessorTangents"},{"bufferView":1,"byteOffset":122976,"componentType":5126,"count":6828,"type":"VEC3","name":"accessorNormals"},{"bufferView":3,"byteOffset":13680,"componentType":5126,"count":6828,"type":"VEC2","name":"accessorUVs"},{"bufferView":4,"componentType":5126,"count":31,"max":[1.0],"min":[0.0],"type":"SCALAR","name":"accessorAnimationInput"},{"bufferView":5,"componentType":5126,"count":31,"type":"VEC4","name":"accessorAnimationRotations"},{"bufferView":4,"byteOffset":124,"componentType":5126,"count":31,"max":[1.0],"min":[0.0],"type":"SCALAR","name":"accessorAnimationInput"},{"bufferView":5,"byteOffset":496,"componentType":5126,"count":31,"type":"VEC4","name":"accessorAnimationRotations"},{"bufferView":4,"byteOffset":248,"componentType":5126,"count":31,"max":[1.0],"min":[0.0],"type":"SCALAR","name":"accessorAnimationInput"},{"bufferView":5,"byteOffset":992,"componentType":5126,"count":31,"type":"VEC4","name":"accessorAnimationRotations"},{"bufferView":4,"byteOffset":372,"componentType":5126,"count":31,"max":[1.0],"min":[0.0],"type":"SCALAR","name":"accessorAnimationInput"},{"bufferView":5,"byteOffset":1488,"componentType":5126,"count":31,"type":"VEC4","name":"accessorAnimationRotations"},{"bufferView":4,"byteOffset":496,"componentType":5126,"count":31,"max":[1.0],"min":[0.0],"type":"SCALAR","name":"accessorAnimationInput"},{"bufferView":5,"byteOffset":1984,"componentType":5126,"count":31,"type":"VEC4","name":"accessorAnimationRotations"},{"bufferView":4,"byteOffset":620,"componentType":5126,"count":31,"max":[1.0],"min":[0.0],"type":"SCALAR","name":"accessorAnimationInput"},{"bufferView":5,"byteOffset":2480,"componentType":5126,"count":31,"type":"VEC4","name":"accessorAnimationRotations"}],"bufferViews":[{"buffer":0,"byteLength":17076,"name":"bufferViewScalar"},{"buffer":0,"byteOffset":17076,"byteLength":204912,"byteStride":12,"name":"bufferViewFloatVec3"},{"buffer":0,"byteOffset":221988,"byteLength":136608,"byteStride":16,"name":"bufferViewFloatVec4"},{"buffer":0,"byteOffset":358596,"byteLength":68304,"byteStride":8,"name":"bufferViewFloatVec2"},{"buffer":0,"byteOffset":426900,"byteLength":744,"name":"bufferViewAnimationFloatScalar"},{"buffer":0,"byteOffset":427644,"byteLength":2976,"name":"bufferViewAnimationFloatVec4"}],"buffers":[{"uri":"E763D236C5524FCA9BDFCE91DD1A1C82.bin","byteLength":430620}],"materials":[{"pbrMetallicRoughness":{"baseColorFactor":[1.0,1.0,1.0,1.0],"baseColorTexture":{"index":0,"texCoord":0},"metallicFactor":0.0,"roughnessFactor":0.9},"emissiveFactor":[0.0,0.0,0.0],"alphaMode":"BLEND","name":"07 - Default"},{"pbrMetallicRoughness":{"baseColorFactor":[1.0,1.0,1.0,1.0],"baseColorTexture":{"index":1,"texCoord":0},"metallicFactor":0.0,"roughnessFactor":0.9},"emissiveFactor":[0.0,0.0,0.0],"alphaMode":"OPAQUE","name":"03 - Default"},{"pbrMetallicRoughness":{"baseColorFactor":[1.0,1.0,1.0,1.0],"baseColorTexture":{"index":2,"texCoord":0},"metallicFactor":0.0,"roughnessFactor":0.9},"emissiveFactor":[0.0,0.0,0.0],"alphaMode":"BLEND","name":"05 - Default"}],"textures":[{"sampler":0,"source":0,"name":"8A7236BC402F4F038D9704394B0F6FD0.png"},{"sampler":0,"source":1,"name":"B2C96AC4B16F4626BD15A236CD71E9E2.png"},{"sampler":0,"source":2,"name":"942A57BF992F4083A056F81227949FEB.png"}],"images":[{"uri":"8A7236BC402F4F038D9704394B0F6FD0.png"},{"uri":"B2C96AC4B16F4626BD15A236CD71E9E2.png"},{"uri":"942A57BF992F4083A056F81227949FEB.png"}],"samplers":[{"magFilter":9729,"minFilter":9987,"wrapS":10497,"wrapT":10497}],"animations":[{"channels":[{"sampler":0,"target":{"node":1,"path":"rotation"}},{"sampler":1,"target":{"node":2,"path":"rotation"}},{"sampler":2,"target":{"node":3,"path":"rotation"}},{"sampler":3,"target":{"node":4,"path":"rotation"}},{"sampler":4,"target":{"node":5,"path":"rotation"}},{"sampler":5,"target":{"node":6,"path":"rotation"}}],"samplers":[{"input":40,"interpolation":"LINEAR","output":41},{"input":42,"interpolation":"LINEAR","output":43},{"input":44,"interpolation":"LINEAR","output":45},{"input":46,"interpolation":"LINEAR","output":47},{"input":48,"interpolation":"LINEAR","output":49},{"input":50,"interpolation":"LINEAR","output":51}],"name":"All Animations"}]}